<svg width="32" height="32" viewBox="0 0 32 32" fill="none" xmlns="http://www.w3.org/2000/svg">
<mask id="mask0_116_57" style="mask-type:alpha" maskUnits="userSpaceOnUse" x="0" y="0" width="32" height="32">
<rect width="32" height="32" fill="#D9D9D9"/>
</mask>
<g mask="url(#mask0_116_57)">
<path d="M6.66667 28C5.93333 28 5.30556 27.7389 4.78333 27.2167C4.26111 26.6944 4 26.0667 4 25.3333V8.66667C4 8.33333 4.05556 8.03333 4.16667 7.76667C4.27778 7.5 4.42222 7.24444 4.6 7L6.46667 4.73333C6.64444 4.48889 6.86667 4.30556 7.13333 4.18333C7.4 4.06111 7.68889 4 8 4H24C24.3111 4 24.6 4.06111 24.8667 4.18333C25.1333 4.30556 25.3556 4.48889 25.5333 4.73333L27.4 7C27.5778 7.24444 27.7222 7.5 27.8333 7.76667C27.9444 8.03333 28 8.33333 28 8.66667V25.3333C28 26.0667 27.7389 26.6944 27.2167 27.2167C26.6944 27.7389 26.0667 28 25.3333 28H6.66667ZM7.2 8H24.8L23.6667 6.66667H8.33333L7.2 8ZM6.66667 10.6667V25.3333H25.3333V10.6667H6.66667ZM16 24L21.3333 18.6667L19.4667 16.8L17.3333 18.9333V13.3333H14.6667V18.9333L12.5333 16.8L10.6667 18.6667L16 24Z" fill="#203562"/>
</g>
</svg>
