<svg width="32" height="32" viewBox="0 0 32 32" fill="none" xmlns="http://www.w3.org/2000/svg">
<mask id="mask0_116_27" style="mask-type:alpha" maskUnits="userSpaceOnUse" x="0" y="0" width="32" height="32">
<rect width="32" height="32" fill="#D9D9D9"/>
</mask>
<g mask="url(#mask0_116_27)">
<path d="M10.6666 24H21.3333V21.3333H10.6666V24ZM10.6666 18.6667H21.3333V16H10.6666V18.6667ZM7.99992 29.3333C7.26659 29.3333 6.63881 29.0722 6.11659 28.55C5.59436 28.0278 5.33325 27.4 5.33325 26.6667V5.33333C5.33325 4.6 5.59436 3.97222 6.11659 3.45C6.63881 2.92778 7.26659 2.66666 7.99992 2.66666H18.6666L26.6666 10.6667V26.6667C26.6666 27.4 26.4055 28.0278 25.8833 28.55C25.361 29.0722 24.7333 29.3333 23.9999 29.3333H7.99992ZM17.3333 12V5.33333H7.99992V26.6667H23.9999V12H17.3333Z" fill="#203562"/>
</g>
</svg>
