<svg width="32" height="32" viewBox="0 0 32 32" fill="none" xmlns="http://www.w3.org/2000/svg">
<g id="logos%format_color_fill" opacity="0.8">
<mask id="mask0_1_184" style="mask-type:alpha" maskUnits="userSpaceOnUse" x="0" y="0" width="32" height="32">
<rect id="Bounding box" width="32" height="32" fill="#D9D9D9"/>
</mask>
<g mask="url(#mask0_1_184)">
<path id="format_color_fill" d="M8.23334 1.86667L10.1333 0L21.5667 11.4333C22.0778 11.9444 22.3333 12.5778 22.3333 13.3333C22.3333 14.0889 22.0778 14.7222 21.5667 15.2333L15.2333 21.5667C14.7222 22.0778 14.0889 22.3333 13.3333 22.3333C12.5778 22.3333 11.9445 22.0778 11.4333 21.5667L5.10001 15.2333C4.58889 14.7222 4.33334 14.0889 4.33334 13.3333C4.33334 12.5778 4.58889 11.9444 5.10001 11.4333L11.4333 5.06667L8.23334 1.86667ZM13.3333 6.96667L6.96667 13.3333H19.7L13.3333 6.96667ZM25.3333 22.6667C24.6 22.6667 23.9722 22.4056 23.45 21.8833C22.9278 21.3611 22.6667 20.7333 22.6667 20C22.6667 19.5333 22.8056 19.0333 23.0833 18.5C23.3611 17.9667 23.6667 17.4667 24 17C24.2 16.7333 24.4111 16.4556 24.6333 16.1667C24.8556 15.8778 25.0889 15.6 25.3333 15.3333C25.5778 15.6 25.8111 15.8778 26.0333 16.1667C26.2556 16.4556 26.4667 16.7333 26.6667 17C27 17.4667 27.3056 17.9667 27.5833 18.5C27.8611 19.0333 28 19.5333 28 20C28 20.7333 27.7389 21.3611 27.2167 21.8833C26.6945 22.4056 26.0667 22.6667 25.3333 22.6667ZM2.66667 32V26.6667H29.3333V32H2.66667Z" fill="#203562"/>
</g>
</g>
</svg>
