<svg width="32" height="32" viewBox="0 0 32 32" fill="none" xmlns="http://www.w3.org/2000/svg">
<g id="format_list_bulleted" opacity="0.8">
<mask id="mask0_1_185" style="mask-type:alpha" maskUnits="userSpaceOnUse" x="0" y="0" width="32" height="32">
<rect id="Bounding box" width="32" height="32" fill="#D9D9D9"/>
</mask>
<g mask="url(#mask0_1_185)">
<path id="format_list_bulleted_2" d="M12 25.3333V22.6667H28V25.3333H12ZM12 17.3333V14.6667H28V17.3333H12ZM12 9.33334V6.66668H28V9.33334H12ZM6.66667 26.6667C5.93333 26.6667 5.30556 26.4056 4.78333 25.8833C4.26111 25.3611 4 24.7333 4 24C4 23.2667 4.26111 22.6389 4.78333 22.1167C5.30556 21.5945 5.93333 21.3333 6.66667 21.3333C7.4 21.3333 8.02778 21.5945 8.55 22.1167C9.07222 22.6389 9.33333 23.2667 9.33333 24C9.33333 24.7333 9.07222 25.3611 8.55 25.8833C8.02778 26.4056 7.4 26.6667 6.66667 26.6667ZM6.66667 18.6667C5.93333 18.6667 5.30556 18.4056 4.78333 17.8833C4.26111 17.3611 4 16.7333 4 16C4 15.2667 4.26111 14.6389 4.78333 14.1167C5.30556 13.5945 5.93333 13.3333 6.66667 13.3333C7.4 13.3333 8.02778 13.5945 8.55 14.1167C9.07222 14.6389 9.33333 15.2667 9.33333 16C9.33333 16.7333 9.07222 17.3611 8.55 17.8833C8.02778 18.4056 7.4 18.6667 6.66667 18.6667ZM6.66667 10.6667C5.93333 10.6667 5.30556 10.4056 4.78333 9.88334C4.26111 9.36112 4 8.73334 4 8.00001C4 7.26668 4.26111 6.6389 4.78333 6.11668C5.30556 5.59445 5.93333 5.33334 6.66667 5.33334C7.4 5.33334 8.02778 5.59445 8.55 6.11668C9.07222 6.6389 9.33333 7.26668 9.33333 8.00001C9.33333 8.73334 9.07222 9.36112 8.55 9.88334C8.02778 10.4056 7.4 10.6667 6.66667 10.6667Z" fill="#203562"/>
</g>
</g>
</svg>
