<svg width="32" height="32" viewBox="0 0 32 32" fill="none" xmlns="http://www.w3.org/2000/svg">
<g id="logos%redo" opacity="0.6">
<mask id="mask0_1_191" style="mask-type:alpha" maskUnits="userSpaceOnUse" x="0" y="0" width="32" height="32">
<rect id="Bounding box" width="32" height="32" fill="#D9D9D9"/>
</mask>
<g mask="url(#mask0_1_191)">
<path id="redo" d="M13.2 25.3333C11.0444 25.3333 9.19444 24.6333 7.64999 23.2333C6.10555 21.8333 5.33333 20.0889 5.33333 18C5.33333 15.9111 6.10555 14.1667 7.64999 12.7667C9.19444 11.3667 11.0444 10.6667 13.2 10.6667H21.6L18.1333 7.20001L20 5.33334L26.6667 12L20 18.6667L18.1333 16.8L21.6 13.3333H13.2C11.8 13.3333 10.5833 13.7778 9.54999 14.6667C8.51666 15.5556 7.99999 16.6667 7.99999 18C7.99999 19.3333 8.51666 20.4445 9.54999 21.3333C10.5833 22.2222 11.8 22.6667 13.2 22.6667H22.6667V25.3333H13.2Z" fill="#203562"/>
</g>
</g>
</svg>
