<svg width="32" height="32" viewBox="0 0 32 32" fill="none" xmlns="http://www.w3.org/2000/svg">
<mask id="mask0_116_47" style="mask-type:alpha" maskUnits="userSpaceOnUse" x="0" y="0" width="32" height="32">
<rect width="32" height="32" fill="#D9D9D9"/>
</mask>
<g mask="url(#mask0_116_47)">
<path d="M16.0001 29.3333C14.1556 29.3333 12.4223 28.9833 10.8001 28.2833C9.17786 27.5833 7.76675 26.6333 6.56675 25.4333C5.36675 24.2333 4.41675 22.8222 3.71675 21.2C3.01675 19.5778 2.66675 17.8444 2.66675 16C2.66675 14.1556 3.01675 12.4222 3.71675 10.8C4.41675 9.17778 5.36675 7.76667 6.56675 6.56667C7.76675 5.36667 9.17786 4.41667 10.8001 3.71667C12.4223 3.01667 14.1556 2.66667 16.0001 2.66667C17.4445 2.66667 18.8112 2.87778 20.1001 3.3C21.389 3.72222 22.5779 4.31111 23.6667 5.06667L21.7334 7.03333C20.889 6.5 19.989 6.08333 19.0334 5.78333C18.0779 5.48333 17.0667 5.33333 16.0001 5.33333C13.0445 5.33333 10.5279 6.37222 8.45008 8.45C6.3723 10.5278 5.33341 13.0444 5.33341 16C5.33341 18.9556 6.3723 21.4722 8.45008 23.55C10.5279 25.6278 13.0445 26.6667 16.0001 26.6667C18.9556 26.6667 21.4723 25.6278 23.5501 23.55C25.6279 21.4722 26.6667 18.9556 26.6667 16C26.6667 15.6 26.6445 15.2 26.6001 14.8C26.5556 14.4 26.489 14.0111 26.4001 13.6333L28.5667 11.4667C28.8112 12.1778 29.0001 12.9111 29.1334 13.6667C29.2667 14.4222 29.3334 15.2 29.3334 16C29.3334 17.8444 28.9834 19.5778 28.2834 21.2C27.5834 22.8222 26.6334 24.2333 25.4334 25.4333C24.2334 26.6333 22.8223 27.5833 21.2001 28.2833C19.5779 28.9833 17.8445 29.3333 16.0001 29.3333ZM14.1334 22.1333L8.46675 16.4667L10.3334 14.6L14.1334 18.4L27.4667 5.03333L29.3334 6.9L14.1334 22.1333Z" fill="#203562"/>
</g>
</svg>
