<svg width="32" height="32" viewBox="0 0 32 32" fill="none" xmlns="http://www.w3.org/2000/svg">
<g id="logos%undo" opacity="0.6">
<mask id="mask0_1_190" style="mask-type:alpha" maskUnits="userSpaceOnUse" x="0" y="0" width="32" height="32">
<rect id="Bounding box" width="32" height="32" fill="#D9D9D9"/>
</mask>
<g mask="url(#mask0_1_190)">
<path id="undo" d="M9.33334 25.3333V22.6667H18.8C20.2 22.6667 21.4167 22.2222 22.45 21.3333C23.4833 20.4445 24 19.3333 24 18C24 16.6667 23.4833 15.5556 22.45 14.6667C21.4167 13.7778 20.2 13.3333 18.8 13.3333H10.4L13.8667 16.8L12 18.6667L5.33334 12L12 5.33334L13.8667 7.20001L10.4 10.6667H18.8C20.9556 10.6667 22.8056 11.3667 24.35 12.7667C25.8944 14.1667 26.6667 15.9111 26.6667 18C26.6667 20.0889 25.8944 21.8333 24.35 23.2333C22.8056 24.6333 20.9556 25.3333 18.8 25.3333H9.33334Z" fill="#203562"/>
</g>
</g>
</svg>
